<svg xmlns="http://www.w3.org/2000/svg">
<symbol viewBox="0 0 14 14" id="svgDoubleArrow">
    <path d="M8.2,7l-6,6l-0.6-0.6L7,7L1.5,1.6L2.2,1L8.2,7z M6.4,1L5.8,1.6L11.2,7l-5.4,5.4L6.4,13l6-6L6.4,1z"/>
</symbol>
<symbol viewBox="0 0 12 12" id="svgDownArrow">
    <path d="M6.3,8.7l4.4-4.4L11,4l-0.3-0.3l-0.4-0.4L10,3L6,7L2,3L1.7,3.3L1.3,3.7L1,4l0.3,0.3l4.4,4.4L6,9L6.3,8.7z"/>
</symbol>
<symbol viewBox="0 0 20 20" id="svgRightArrow">
    <path d="M5,1.6l8.4,8.4L5,18.4l0.8,0.9L15,10L5.8,0.7L5,1.6z"/>
</symbol>
<symbol viewBox="0 0 24 24" id="svgSocFacebook">
    <path d="M22,12c0-5.5-4.5-10-10-10S2,6.5,2,12c0,4.8,3.4,8.9,8,9.8V15H8v-3h2V9.5C10,7.6,11.6,6,13.5,6H16v3h-2c-0.6,0-1,0.4-1,1v2h3v3h-3v7C18,21.5,22,17.2,22,12z"/>
</symbol>
<symbol viewBox="0 0 24 24" id="svgSocInstagram">
    <path d="M16,3c1.3,0,2.6,0.5,3.5,1.5C20.5,5.4,21,6.7,21,8v8c0,1.3-0.5,2.6-1.5,3.5C18.6,20.5,17.3,21,16,21H8c-1.3,0-2.6-0.5-3.5-1.5C3.5,18.6,3,17.3,3,16V8c0-1.3,0.5-2.6,1.5-3.5C5.4,3.5,6.7,3,8,3H16z M12,8c-1.1,0-2.1,0.4-2.8,1.2C8.4,9.9,8,10.9,8,12s0.4,2.1,1.2,2.8C9.9,15.6,10.9,16,12,16s2.1-0.4,2.8-1.2c0.8-0.8,1.2-1.8,1.2-2.8s-0.4-2.1-1.2-2.8C14.1,8.4,13.1,8,12,8z M12,10c0.5,0,1,0.2,1.4,0.6S14,11.5,14,12s-0.2,1-0.6,1.4S12.5,14,12,14s-1-0.2-1.4-0.6S10,12.5,10,12s0.2-1,0.6-1.4S11.5,10,12,10z M16.5,6.5c-0.3,0-0.5,0.1-0.7,0.3c-0.2,0.2-0.3,0.4-0.3,0.7s0.1,0.5,0.3,0.7c0.2,0.2,0.4,0.3,0.7,0.3s0.5-0.1,0.7-0.3c0.2-0.2,0.3-0.4,0.3-0.7S17.4,7,17.2,6.8C17,6.6,16.8,6.5,16.5,6.5z"/>
</symbol>
<symbol viewBox="0 0 24 24" id="svgSocYoutube">
    <path d="M10,15l5.2-3L10,9V15z M21.6,7.2c0.1,0.5,0.2,1.1,0.3,1.9c0.1,0.8,0.1,1.5,0.1,2.1L22,12c0,2.2-0.2,3.8-0.4,4.8c-0.3,0.9-0.8,1.5-1.7,1.7c-0.5,0.1-1.3,0.2-2.6,0.3c-1.3,0.1-2.5,0.1-3.6,0.1L12,19c-4.2,0-6.8-0.2-7.8-0.4c-0.9-0.3-1.5-0.8-1.7-1.7c-0.1-0.5-0.2-1.1-0.3-1.9c-0.1-0.8-0.1-1.5-0.1-2.1L2,12c0-2.2,0.2-3.8,0.4-4.8c0.3-0.9,0.8-1.5,1.7-1.7c0.5-0.1,1.3-0.2,2.7-0.3c1.3-0.1,2.5-0.1,3.6-0.1L12,5c4.2,0,6.8,0.2,7.8,0.4C20.7,5.7,21.3,6.3,21.6,7.2z"/>
</symbol>
<symbol viewBox="0 0 10 10" id="svgMarker">
    <path d="M1.3,3.7L0,5l3.8,4L10,2.3L8.8,1l-5,5.3L1.3,3.7z"/>
</symbol>
<symbol viewBox="0 0 30 30" id="svgContEmail">
    <path d="M26,4.5c0.7,0,1.3,0.2,1.7,0.7c0.5,0.5,0.7,1,0.7,1.7V23c0,0.7-0.2,1.3-0.7,1.7s-1,0.7-1.7,0.7H3.4c-0.7,0-1.3-0.2-1.7-0.7S1,23.7,1,23V7c0-0.7,0.2-1.3,0.7-1.7c0.5-0.5,1-0.7,1.7-0.7H26z M25.7,6.2h-22l11,10.9L25.7,6.2z M2.6,22.7l7.7-7.8L2.6,7.3V22.7z M3.7,23.8h22L18,16.1l-2.6,2.7c-0.4,0.4-0.8,0.4-1.2,0l-2.7-2.7L3.7,23.8z M26.8,22.7V7.3L19.1,15L26.8,22.7z"/>
</symbol>
<symbol viewBox="0 0 30 30" id="svgContTel">
    <path d="M22.7,18.3l3.2,3.2c0.6,0.6,0.9,1.2,0.9,2c0,0.7-0.3,1.4-0.9,2c-0.2,0.2-0.5,0.5-0.8,0.8c-0.5,0.5-0.8,0.8-1,1.1c-0.9,1-2,1.4-3.3,1.4c-0.1,0-0.2,0-0.4,0c-1.5-0.1-3.2-0.6-5.1-1.5c-3.5-1.7-6.5-4.1-9.1-7.1c-2-2.4-3.5-4.9-4.4-7.4c-0.6-1.6-0.9-3-0.8-4.3c0.1-1,0.5-1.9,1.2-2.7l2-2c0.6-0.6,1.3-0.9,2-0.9c0.7,0,1.4,0.3,1.9,0.9C8.4,4,8.8,4.4,9.2,4.8c0.1,0.1,0.3,0.3,0.6,0.5l1.6,1.6c0.6,0.6,0.9,1.3,0.9,2c0,0.7-0.3,1.4-0.9,2c0,0.1-0.1,0.2-0.2,0.3c-0.1,0.1-0.2,0.2-0.2,0.2c-0.6,0.6-1.1,1.1-1.3,1.3c0.4,0.8,0.9,1.6,1.6,2.5c1.5,1.8,3.1,3.3,4.8,4.3c0.1,0.1,0.3,0.2,0.6,0.3c0,0,0.1,0,0.1,0.1l0.3,0.2l1.8-1.8c0.6-0.6,1.3-0.9,2-0.9C21.5,17.4,22.1,17.7,22.7,18.3z M24.7,24.4c0.6-0.6,0.6-1.2,0-1.8l-3.2-3.2l-0.1-0.1c-0.3-0.3-0.5-0.4-0.8-0.4c-0.3,0-0.6,0.2-0.9,0.5l-2,2c-0.3,0.3-0.6,0.4-0.9,0.4c-0.2,0-0.4-0.1-0.5-0.2c0,0-0.1,0-0.1,0c0,0,0,0,0,0c-0.1-0.1-0.3-0.2-0.5-0.3c-0.3-0.2-0.6-0.3-0.8-0.4c-1.8-1.2-3.5-2.8-5.1-4.7C9,15.1,8.4,14.1,8,13.1c0,0,0,0,0-0.1c-0.2-0.5-0.1-0.9,0.3-1.3v-0.1c0.4-0.4,0.9-0.8,1.4-1.4c0,0,0.2-0.2,0.5-0.5c0.6-0.6,0.6-1.2,0-1.8L8.7,6.5C8.6,6.4,8.5,6.3,8.4,6.2S8.2,6,8.2,5.9c-0.4-0.4-0.8-0.8-1.1-1V4.8C6.8,4.6,6.5,4.4,6.2,4.4S5.7,4.6,5.4,4.8l-2,2C2.9,7.3,2.7,7.9,2.6,8.5c-0.1,1,0.1,2.3,0.6,3.6c0.9,2.3,2.3,4.6,4.2,7c2.4,2.9,5.2,5.1,8.5,6.7c1.7,0.8,3.2,1.3,4.6,1.3c0,0,0.1,0,0.3,0c0.9,0,1.6-0.3,2.1-0.9c0.3-0.3,0.7-0.7,1.1-1.2C24.4,24.7,24.6,24.5,24.7,24.4z M15.8,7.8c-0.2,0-0.4-0.1-0.5-0.3s-0.2-0.4-0.1-0.6s0.1-0.4,0.3-0.5c0.2-0.1,0.4-0.2,0.6-0.1c1.9,0.3,3.5,1.2,4.8,2.5c1.4,1.4,2.2,3,2.5,4.8c0,0.2,0,0.4-0.1,0.6c-0.1,0.2-0.3,0.3-0.5,0.3c-0.1,0-0.1,0-0.2,0c-0.4,0-0.7-0.2-0.8-0.6c-0.3-1.5-0.9-2.9-2.1-4C18.7,8.8,17.4,8.1,15.8,7.8z M28.4,13.4c0,0.2,0,0.4-0.1,0.6c-0.1,0.2-0.3,0.3-0.5,0.3c-0.1,0-0.1,0.1-0.2,0.1c-0.4,0-0.7-0.2-0.8-0.6c-0.5-2.8-1.7-5.1-3.7-7.1c-2-2-4.4-3.2-7.1-3.7c-0.2,0-0.4-0.1-0.5-0.3s-0.2-0.4-0.1-0.6c0-0.2,0.1-0.4,0.3-0.5c0.2-0.1,0.4-0.2,0.6-0.1c3.1,0.5,5.7,1.9,8,4.2C26.5,7.7,27.9,10.3,28.4,13.4z"/>
</symbol>
<symbol viewBox="0 0 30 30" id="svgContAddress">
    <path d="M26.2,7.4v0.2V7.4l-1.7,0.4c-0.2-3-2.7-5.3-5.7-5.3c-3,0-5.5,2.4-5.7,5.4l-1.7-0.4V7.4H1.5v18.2h8.8l8.6,2.4l9-2.6V7.4H26.2z M18.8,4.2c2.3,0,4.2,1.9,4.2,4.2c0,3-2.8,6.9-4.2,8.5c-1.3-1.6-4.1-5.6-4.1-8.5C14.7,6,16.5,4.2,18.8,4.2z M11.4,9.2l1.7,0.4c0.7,3.7,4,7.9,4.8,8.9V26l-6.6-1.9V9.2z M3.1,9.1h6.6V24H3.1V9.1z M19.6,26.1v-7.6c0.9-1,4.2-5.2,4.8-8.9l1.8-0.4v14.9L19.6,26.1z M21,8.4c0-1.3-1-2.2-2.2-2.2c-1.2,0-2.2,1-2.2,2.2c0,1.3,1,2.2,2.2,2.2C20,10.7,21,9.7,21,8.4z M18.2,8.4c0-0.3,0.3-0.6,0.6-0.6c0.3,0,0.6,0.3,0.6,0.6c0,0.3-0.3,0.6-0.6,0.6C18.5,9,18.2,8.8,18.2,8.4z"/>
</symbol>
<symbol viewBox="0 0 16 16" id="svgClose">
    <path d="M14.3,1.7c-0.1-0.1-0.2-0.2-0.3-0.2c-0.1-0.1-0.3-0.1-0.4-0.1c-0.1,0-0.3,0-0.4,0.1c-0.1,0.1-0.2,0.1-0.3,0.2L8,6.6L3.1,1.7C3,1.6,2.9,1.5,2.8,1.5C2.7,1.4,2.5,1.4,2.4,1.4c-0.1,0-0.3,0-0.4,0.1C1.9,1.5,1.8,1.6,1.7,1.7C1.6,1.8,1.5,1.9,1.5,2C1.4,2.1,1.4,2.3,1.4,2.4s0,0.3,0.1,0.4C1.5,2.9,1.6,3,1.7,3.1L6.6,8l-4.9,4.9c-0.1,0.1-0.2,0.2-0.2,0.3c-0.1,0.1-0.1,0.3-0.1,0.4c0,0.1,0,0.3,0.1,0.4c0.1,0.1,0.1,0.2,0.2,0.3c0.1,0.1,0.2,0.2,0.3,0.2c0.1,0.1,0.3,0.1,0.4,0.1c0.1,0,0.3,0,0.4-0.1c0.1-0.1,0.2-0.1,0.3-0.2L8,9.4l4.9,4.9c0.1,0.1,0.2,0.2,0.3,0.2c0.1,0.1,0.3,0.1,0.4,0.1c0.1,0,0.3,0,0.4-0.1c0.1-0.1,0.2-0.1,0.3-0.2c0.1-0.1,0.2-0.2,0.2-0.3c0.1-0.1,0.1-0.3,0.1-0.4c0-0.1,0-0.3-0.1-0.4c-0.1-0.1-0.1-0.2-0.2-0.3L9.4,8l4.9-4.9C14.7,2.7,14.7,2.1,14.3,1.7z"/>
</symbol>
<symbol viewBox="0 0 16 16" id="svgPlay">
    <path d="M13.4,7.7c0.1,0.1,0.1,0.2,0.1,0.3c0,0.1,0,0.2-0.1,0.3L3,15.5c-0.1,0-0.1,0.1-0.2,0.1c-0.1,0-0.1,0-0.1,0c-0.1-0.1-0.2-0.2-0.2-0.3V0.8c0-0.1,0.1-0.2,0.2-0.3c0.1-0.1,0.3-0.1,0.4,0L13.4,7.7z"/>
</symbol>
<symbol viewBox="0 0 58 58" id="svgProvidedIcon1">
    <path d="M53,15.7c0.1,2.5,0.1,4.9,0.1,7.2c0,2.3-0.2,4.9-0.6,7.8c-0.4,2.9-1.1,5.5-2,7.9c-1.6,4.2-3.9,7.8-7,10.8c-3.5,3.5-8.1,6.2-13.6,8.1c-0.2,0.1-0.3,0.1-0.6,0.1c-0.2,0.1-0.5,0.1-0.8,0.1c-0.3,0-0.6,0-0.8-0.1c-0.2,0-0.4,0-0.6-0.1c-5.6-2-10.1-4.7-13.6-8.1c-3.1-3-5.4-6.6-7-10.8c-0.9-2.3-1.6-4.9-2-7.8C4.2,27.9,4,25.3,4,22.9c0-2.4,0-4.8,0.1-7.3c0-0.6,0-1.2,0-1.8c0-1.7,0.6-3,1.7-4.2c1.1-1.1,2.5-1.8,4.1-1.9C16.3,7.5,21.7,5.2,26,1h0.1c0.7-0.7,1.5-1,2.5-1s1.8,0.3,2.5,1h0.1c4.3,4.2,9.7,6.5,16.1,6.8c1.1,0.1,2,0.4,2.9,1c0.9,0.6,1.6,1.3,2.1,2.2c0.5,0.9,0.8,1.9,0.8,2.9C53,14.5,53,15.1,53,15.7z M47.4,37.4c0.8-2.3,1.4-4.7,1.8-7.3c0.4-2.6,0.6-5.1,0.6-7.3c0-2.3,0-4.6-0.1-7c0-0.6,0-1.2,0-1.9c0-0.7-0.2-1.3-0.7-1.8c-0.5-0.5-1.1-0.8-1.9-0.9C43.4,11,40,10.3,37,9c-3-1.3-5.8-3.1-8.2-5.5c-0.2-0.2-0.3-0.2-0.5,0c-2.5,2.4-5.2,4.2-8.2,5.5c-3,1.3-6.4,2-10,2.1c-0.8,0.1-1.4,0.4-1.9,0.9c-0.5,0.5-0.7,1.1-0.7,1.8c0,0.7,0,1.3,0,1.9c-0.1,2.5-0.1,4.8-0.1,7.1s0.2,4.7,0.6,7.3c0.4,2.6,1,5,1.8,7.2c2.9,8,9.1,13.6,18.6,16.9c0,0,0,0,0.1,0c0.1,0,0.2,0,0.2,0c0.1,0,0.1,0,0.1,0C38.3,51,44.5,45.4,47.4,37.4z M18.4,18.7c0,0,0.7-0.7,2.1-2.1c1.4-1.4,4.1-2.1,8.1-2.1s7.4,1.4,10.2,4.2c2.8,2.8,4.2,6.2,4.2,10.2c0,4-1.4,7.4-4.2,10.2c-2.8,2.8-6.2,4.2-10.2,4.2s-7.4-1.4-10.2-4.2c-2.8-2.8-4.2-6.2-4.2-10.2C14.1,24.9,15.6,21.5,18.4,18.7z M20.8,36.6c0,0,0.5,0.5,1.6,1.6c1.1,1.1,3.1,1.6,6.1,1.6s5.6-1.1,7.8-3.3c2.2-2.2,3.3-4.8,3.3-7.8c0-3-1.1-5.6-3.3-7.8c-2.2-2.2-4.8-3.3-7.8-3.3s-5.6,1.1-7.8,3.3s-3.3,4.8-3.3,7.8C17.5,31.9,18.6,34.5,20.8,36.6z M32.8,24.4c0.8-0.8,1.5-0.7,2.4,0.1c0.8,0.8,0.8,1.6,0,2.4l-7.9,7.9c-0.3,0.3-0.7,0.5-1.2,0.5s-0.9-0.2-1.2-0.5l-3-3c-0.8-0.8-0.8-1.6,0-2.4c0.8-0.8,1.6-0.8,2.4,0.1l1.8,1.8L32.8,24.4z"/>
</symbol>
<symbol viewBox="0 0 48 48" id="svgVideo">
    <path d="M37.1,6.5L30.5,0h-5.5l6.5,6.5H37.1z M2.2,0H0v6.5h8.7L2.2,0z M22.9,6.5L16.4,0h-5.5l6.5,6.5H22.9z M39.3,15.3h-8.7l6.5-6.5h-5.5l-6.5,6.5h-8.7l6.5-6.5h-5.5l-6.5,6.5H2.2l6.5-6.5H0v34.9C0,46,2,48,4.4,48h39.3c2.4,0,4.4-2,4.4-4.4V8.7h-2.2L39.3,15.3z M17.5,41.5V21.8l17.5,9.8L17.5,41.5z M39.3,0l6.5,6.5H48V0H39.3z"/>
</symbol>
<symbol viewBox="0 0 48 48" id="svgData">
    <path d="M12.2,31.1l0.7,0.4c0.2,0.1,0.3,0.2,0.4,0.4c0.1,0.2,0.2,0.4,0.2,0.5c0,0.2,0,0.4-0.1,0.6c-0.1,0.2-0.2,0.3-0.4,0.4l-2.9,1.1l10.5,4c2.2,0.5,5,0.5,7.3,0l10.5-4l-3.2-1.2c-0.2-0.1-0.3-0.2-0.4-0.4c-0.1-0.2-0.1-0.3-0.1-0.5c0-0.2,0-0.4,0.1-0.5s0.2-0.3,0.4-0.4l0.6-0.4c0.3-0.2,0.6-0.2,0.9-0.3c0.3,0,0.6,0.1,0.9,0.2l5,2c0.2,0.2,0.4,0.4,0.6,0.6c0.1,0.3,0.2,0.5,0.2,0.8c0,0.3-0.1,0.6-0.2,0.8c-0.1,0.3-0.3,0.5-0.6,0.6l-12.8,5.4c-3.3,1.2-7.6,1.2-10.9,0L5.9,36c-0.2-0.2-0.4-0.4-0.6-0.6c-0.1-0.3-0.2-0.5-0.2-0.8s0.1-0.6,0.2-0.8s0.3-0.5,0.6-0.6l4.5-1.9c0.3-0.2,0.6-0.3,0.9-0.3C11.6,30.8,11.9,30.9,12.2,31.1z M12.2,20.8l0.7,0.4c0.2,0.1,0.3,0.2,0.4,0.4c0.1,0.2,0.2,0.4,0.2,0.5c0,0.2,0,0.4-0.1,0.6c-0.1,0.2-0.2,0.3-0.4,0.4l-2.9,1.1l10.5,4c2.2,0.5,5,0.5,7.3,0l10.5-4L35.1,23c-0.2-0.1-0.3-0.2-0.4-0.4c-0.1-0.2-0.1-0.3-0.1-0.5c0-0.2,0-0.4,0.1-0.5c0.1-0.2,0.2-0.3,0.4-0.4l0.6-0.4c0.3-0.2,0.6-0.2,0.9-0.3c0.3,0,0.6,0.1,0.9,0.2l5,2c0.2,0.2,0.4,0.4,0.6,0.6c0.1,0.3,0.2,0.5,0.2,0.8c0,0.3-0.1,0.6-0.2,0.8c-0.1,0.3-0.3,0.5-0.6,0.6l-12.8,5.4c-3.3,1.2-7.6,1.2-10.9,0L5.9,25.7c-0.2-0.2-0.4-0.4-0.6-0.6c-0.1-0.3-0.2-0.5-0.2-0.8c0-0.3,0.1-0.6,0.2-0.8s0.3-0.5,0.6-0.6l4.5-1.9c0.3-0.2,0.6-0.3,0.9-0.3C11.6,20.6,11.9,20.6,12.2,20.8z M29.5,6.8l12.8,5.4c0.2,0.2,0.4,0.4,0.6,0.6c0.1,0.3,0.2,0.5,0.2,0.8c0,0.3-0.1,0.6-0.2,0.8c-0.1,0.3-0.3,0.5-0.6,0.6l-12.8,5.4c-3.3,1.2-7.6,1.2-10.9,0L5.8,15.2c-0.2-0.2-0.4-0.4-0.6-0.6C5,14.3,4.9,14,4.9,13.7c0-0.3,0.1-0.6,0.2-0.8s0.3-0.5,0.6-0.6l12.8-5.4C21.9,5.6,26.1,5.6,29.5,6.8z M19.8,10l-8.7,3.7l8.7,3.7c2.5,0.9,5.9,0.9,8.4,0l8.7-3.7L28.2,10C25.7,9.1,22.3,9.1,19.8,10z"/>
</symbol>
<symbol viewBox="0 0 24 24" id="svgFlag">
    <path d="M5,1.3c0.2,0,0.4,0.1,0.5,0.2C5.7,1.6,5.8,1.8,5.8,2v1.1l1.6-0.3c1.8-0.4,3.7-0.2,5.3,0.5l0.2,0.1c1.4,0.6,3,0.7,4.4,0.3c0.3-0.1,0.6-0.1,0.9,0C18.5,3.7,18.8,3.8,19,4c0.2,0.2,0.4,0.4,0.6,0.7c0.1,0.3,0.2,0.6,0.2,0.9v7.4c0,1-0.7,1.8-1.6,2.1L17.9,15c-1.9,0.5-3.9,0.3-5.8-0.4c-1.4-0.6-3-0.7-4.5-0.4l-1.9,0.4V22c0,0.2-0.1,0.4-0.2,0.5c-0.1,0.1-0.3,0.2-0.5,0.2s-0.4-0.1-0.5-0.2c-0.1-0.1-0.2-0.3-0.2-0.5V2c0-0.2,0.1-0.4,0.2-0.5C4.6,1.3,4.8,1.3,5,1.3z M5.8,13.1l1.6-0.3c1.8-0.4,3.7-0.2,5.3,0.5c1.5,0.6,3.2,0.7,4.9,0.3l0.2-0.1c0.1,0,0.3-0.1,0.4-0.2s0.1-0.3,0.1-0.4V5.5c0-0.1,0-0.1,0-0.2c0-0.1-0.1-0.1-0.1-0.2c-0.1,0-0.1-0.1-0.2-0.1c-0.1,0-0.1,0-0.2,0c-1.8,0.4-3.7,0.3-5.4-0.4l-0.2-0.1c-1.4-0.6-3-0.7-4.5-0.4L5.8,4.6V13.1z"/>
</symbol>
<symbol viewBox="0 0 35 35" id="svgProj3D">
    <path d="M4,22.4c0.6,0,1,0.5,1,1v3c0,0.9,0.4,1.8,1,2.4c0.6,0.6,1.5,1,2.4,1H13c0.6,0,1,0.5,1,1c0,0.6-0.5,1-1,1H8.5c-1.5,0-2.9-0.6-3.9-1.6c-1-1-1.6-2.5-1.6-3.9v-3C3,22.9,3.4,22.4,4,22.4z M31,22.4c0.6,0,1,0.5,1,1.1v3c0,1.5-0.6,2.9-1.6,3.9c-1,1-2.5,1.6-3.9,1.6H22c-0.6,0-1-0.5-1-1c0-0.6,0.5-1,1-1h4.5c0.9,0,1.8-0.4,2.4-1c0.6-0.6,1-1.5,1-2.4v-3C29.9,22.9,30.4,22.4,31,22.4z M17.5,7c0.7,0,1.4,0.2,2,0.5h0l5.9,3.3l0,0c0.6,0.3,1.1,0.9,1.5,1.5c0.4,0.6,0.6,1.3,0.6,2v6.4l0,0.3c0,0.6-0.2,1.2-0.5,1.8c-0.4,0.6-0.9,1.1-1.5,1.5l0,0l-5.9,3.3l0,0c-0.6,0.3-1.3,0.5-2,0.5c-0.7,0-1.4-0.2-2-0.5l-5.9-3.3l0,0c-0.6-0.3-1.1-0.9-1.5-1.5c-0.4-0.6-0.6-1.3-0.6-2v-6.4c0-0.7,0.2-1.4,0.6-2c0.4-0.6,0.9-1.1,1.5-1.5l0,0l5.9-3.3C16.1,7.1,16.8,7,17.5,7z M9.7,14c0,0.1,0,0.2,0,0.3v6.4c0,0.3,0.1,0.7,0.3,1c0.2,0.3,0.4,0.5,0.7,0.7l5.8,3.2v-7.5L9.7,14z M18.5,18.1v7.5l5.8-3.2c0.3-0.2,0.5-0.4,0.7-0.7c0.2-0.3,0.3-0.6,0.3-1v-6.4c0-0.1,0-0.2,0-0.3L18.5,18.1z M17.5,9.1c-0.3,0-0.6,0.1-0.9,0.2l0,0L11,12.4l6.5,3.9l6.5-3.9l-5.5-3.1l0,0C18.1,9.2,17.8,9.1,17.5,9.1z M13,3c0.6,0,1,0.5,1,1s-0.5,1-1,1H8.5c-0.9,0-1.8,0.4-2.4,1s-1,1.5-1,2.4v3c0,0.6-0.5,1.1-1,1.1c-0.6,0-1-0.5-1-1.1v-3C3,7,3.5,5.6,4.6,4.6C5.6,3.5,7,3,8.5,3H13z M26.5,3c1.5,0,2.9,0.6,3.9,1.6c1,1,1.6,2.5,1.6,3.9v3c0,0.6-0.5,1-1,1c-0.6,0-1-0.5-1-1v-3c0-0.9-0.4-1.8-1-2.4c-0.6-0.6-1.5-1-2.4-1H22c-0.6,0-1-0.5-1-1c0-0.6,0.5-1,1-1H26.5z"/>
</symbol>
<symbol viewBox="0 0 35 35" id="svgProjMap">
    <path d="M6.6,13.1v2.2H4.4v15.3h26.3V15.3h-2.2v-2.2h2.2c0.6,0,1.1,0.2,1.5,0.6c0.4,0.4,0.6,1,0.6,1.5v15.3c0,0.6-0.2,1.1-0.6,1.5c-0.4,0.4-1,0.6-1.5,0.6H4.4c-0.6,0-1.1-0.2-1.5-0.6c-0.4-0.4-0.6-1-0.6-1.5V15.3c0-0.6,0.2-1.1,0.6-1.5c0.4-0.4,1-0.6,1.5-0.6H6.6z M17.5,2.2c2.3,0,4.6,1,6.2,2.6c1.6,1.7,2.6,3.9,2.5,6.3c0,2-0.7,4-2,5.6l-6.8,9.6l-6.7-9.4c-1.1-1.3-1.8-2.9-2-4.5c-0.2-1.7,0-3.4,0.7-4.9c0.7-1.5,1.8-2.8,3.2-3.8C14.2,2.7,15.8,2.2,17.5,2.2z M17.5,4.4c-1.8,0-3.4,0.7-4.7,2c-1.2,1.3-1.9,3-1.9,4.7c0,1.6,0.6,3.2,1.6,4.4l4.9,7l5.1-7.1c1-1.2,1.5-2.7,1.5-4.2c0-1.8-0.7-3.5-1.9-4.7C20.9,5.1,19.3,4.4,17.5,4.4z M17.5,7.7c1.2,0,2.2,1,2.2,2.2c0,1.2-1,2.2-2.2,2.2s-2.2-1-2.2-2.2C15.3,8.6,16.3,7.7,17.5,7.7z"/>
</symbol>
<symbol viewBox="0 0 35 35" id="svgProjImg">
    <path d="M6.7,3.5h21.5c0.9,0,1.7,0.3,2.3,0.9s0.9,1.4,0.9,2.3v21.5c0,0.9-0.3,1.7-0.9,2.3s-1.4,0.9-2.3,0.9H6.7c-0.9,0-1.7-0.3-2.3-0.9s-0.9-1.4-0.9-2.3V6.7c0-0.9,0.3-1.7,0.9-2.3S5.9,3.5,6.7,3.5z M6.7,5.7C6.4,5.7,6.2,5.8,6,6C5.8,6.2,5.7,6.4,5.7,6.7v12.6l3.6-3.6c0.1-0.1,0.2-0.2,0.3-0.2c0.1,0,0.2-0.1,0.4-0.1c0.1,0,0.3,0,0.4,0.1c0.1,0.1,0.2,0.1,0.3,0.2l7.6,8.2l6-6c0.2-0.2,0.4-0.3,0.7-0.3c0.3,0,0.5,0.1,0.7,0.3l3.6,3.6V6.7c0-0.3-0.1-0.6-0.3-0.8c-0.2-0.2-0.5-0.3-0.8-0.3H6.7z M5.7,28.3v-6.2l4.3-4.3l7.6,8.2l3,3.4H6.7c-0.3,0-0.6-0.1-0.8-0.3C5.8,28.8,5.7,28.6,5.7,28.3z M28.3,29.3h-5.1l-3.6-4l5.4-5.4l4.3,4.3v4c0,0.3-0.1,0.6-0.3,0.8C28.8,29.2,28.6,29.3,28.3,29.3z M15.7,13.2c0-0.5,0.2-1,0.5-1.3c0.3-0.3,0.8-0.5,1.3-0.5c0.5,0,1,0.2,1.3,0.5c0.3,0.3,0.5,0.8,0.5,1.3c0,0.5-0.2,1-0.5,1.3C18.5,14.8,18,15,17.5,15c-0.5,0-1-0.2-1.3-0.5C15.9,14.1,15.7,13.7,15.7,13.2z M17.5,9.4c-0.5,0-1,0.1-1.4,0.3c-0.5,0.2-0.9,0.5-1.2,0.8c-0.4,0.4-0.6,0.8-0.8,1.2s-0.3,0.9-0.3,1.4s0.1,1,0.3,1.4s0.5,0.9,0.8,1.2c0.4,0.3,0.8,0.6,1.2,0.8S17,17,17.5,17c1,0,2-0.4,2.7-1.1c0.7-0.7,1.1-1.7,1.1-2.7s-0.4-2-1.1-2.7C19.5,9.8,18.5,9.4,17.5,9.4z"/>
</symbol>
<symbol viewBox="0 0 35 35" id="svgProjVideo">
    <path d="M22.5,14.4L15.9,10c-0.2-0.1-0.4-0.2-0.6-0.2c-0.2,0-0.4,0-0.6,0.1c-0.2,0.1-0.3,0.2-0.4,0.4c-0.1,0.2-0.2,0.4-0.2,0.6v8.8c0,0.2,0.1,0.4,0.2,0.6c0.1,0.2,0.2,0.3,0.4,0.4c0.2,0.1,0.4,0.1,0.6,0.1c0.2,0,0.4-0.1,0.6-0.2l6.6-4.4c0.2-0.1,0.3-0.2,0.4-0.4c0.1-0.2,0.1-0.3,0.1-0.5s0-0.4-0.1-0.5C22.8,14.6,22.6,14.5,22.5,14.4z M16.4,17.6V13l3.5,2.3L16.4,17.6z M29.5,5.5H5.5c-0.6,0-1.1,0.2-1.5,0.6c-0.4,0.4-0.6,1-0.6,1.5V23c0,0.6,0.2,1.1,0.6,1.5c0.4,0.4,1,0.6,1.5,0.6h24.1c0.6,0,1.1-0.2,1.5-0.6c0.4-0.4,0.6-1,0.6-1.5V7.7c0-0.6-0.2-1.1-0.6-1.5C30.7,5.7,30.1,5.5,29.5,5.5z M29.5,23H5.5V7.7h24.1V23z M31.7,28.4c0,0.3-0.1,0.6-0.3,0.8c-0.2,0.2-0.5,0.3-0.8,0.3H4.4c-0.3,0-0.6-0.1-0.8-0.3c-0.2-0.2-0.3-0.5-0.3-0.8s0.1-0.6,0.3-0.8c0.2-0.2,0.5-0.3,0.8-0.3h26.3c0.3,0,0.6,0.1,0.8,0.3C31.6,27.9,31.7,28.1,31.7,28.4z"/>
</symbol>
<symbol viewBox="0 0 30 30" id="svg2FullScreen">
    <path d="M21.82,0.68c0,0.32,0.32,0.68,0.68,0.68h5.17L17.25,11.78c-0.26,0.25-0.27,0.72-0.01,0.97s0.72,0.26,0.97,0L28.64,2.32V7.5c-0.01,0.36,0.32,0.69,0.68,0.69C29.68,8.19,30,7.86,30,7.5V0.68C30,0.32,29.67,0,29.32,0H22.5C22.1,0,21.82,0.36,21.82,0.68z M0.62,4.09C0.28,4.12,0,4.44,0,4.77v24.55C0,29.67,0.32,30,0.68,30h24.55c0.36,0,0.68-0.32,0.68-0.68V12.44c0.01-0.36-0.32-0.69-0.68-0.69c-0.36,0-0.69,0.33-0.68,0.69v16.19H1.36V5.45h16.19c0.36,0.01,0.69-0.32,0.69-0.68c0-0.36-0.33-0.69-0.69-0.68H0.68C0.66,4.09,0.64,4.09,0.62,4.09z"/>
</symbol>
</svg>